<mxfile host="app.diagrams.net" agent="Mozilla/5.0 (Windows NT 10.0; Win64; x64) AppleWebKit/537.36 (KHTML, like Gecko) Chrome/131.0.0.0 Safari/537.36" version="26.0.3">
  <diagram name="Seite-1" id="xQ-KmShce1pJU9ZIi18R">
    <mxGraphModel dx="1434" dy="772" grid="1" gridSize="10" guides="1" tooltips="1" connect="1" arrows="1" fold="1" page="1" pageScale="1" pageWidth="1654" pageHeight="1169" math="0" shadow="0">
      <root>
        <mxCell id="0" />
        <mxCell id="1" parent="0" />
        <mxCell id="Ao8Ksotd7pigEUmbOdXn-1" style="edgeStyle=orthogonalEdgeStyle;rounded=0;orthogonalLoop=1;jettySize=auto;html=1;entryX=0.5;entryY=0;entryDx=0;entryDy=0;" edge="1" parent="1" source="Ao8Ksotd7pigEUmbOdXn-2" target="Ao8Ksotd7pigEUmbOdXn-3">
          <mxGeometry relative="1" as="geometry" />
        </mxCell>
        <mxCell id="Ao8Ksotd7pigEUmbOdXn-2" value="HMI" style="rounded=0;whiteSpace=wrap;html=1;fillColor=#d5e8d4;strokeColor=#82b366;" vertex="1" parent="1">
          <mxGeometry x="80" y="88" width="480" height="40" as="geometry" />
        </mxCell>
        <mxCell id="Ao8Ksotd7pigEUmbOdXn-3" value="&amp;nbsp; Prozessmodell" style="rounded=0;whiteSpace=wrap;html=1;fillColor=#fff2cc;strokeColor=#d6b656;align=left;verticalAlign=top;" vertex="1" parent="1">
          <mxGeometry x="80" y="168" width="480" height="462" as="geometry" />
        </mxCell>
        <mxCell id="Ao8Ksotd7pigEUmbOdXn-4" value="&amp;nbsp; Sequenz 1" style="rounded=0;whiteSpace=wrap;html=1;align=left;verticalAlign=top;fillColor=#ffe6cc;strokeColor=#d79b00;" vertex="1" parent="1">
          <mxGeometry x="90" y="360" width="140" height="140" as="geometry" />
        </mxCell>
        <mxCell id="Ao8Ksotd7pigEUmbOdXn-5" value="&amp;nbsp; Arbeitsplan" style="rounded=0;whiteSpace=wrap;html=1;align=left;verticalAlign=top;fillColor=#ffe6cc;strokeColor=#d79b00;" vertex="1" parent="1">
          <mxGeometry x="90" y="200" width="140" height="140" as="geometry" />
        </mxCell>
        <mxCell id="Ao8Ksotd7pigEUmbOdXn-6" style="edgeStyle=orthogonalEdgeStyle;rounded=0;orthogonalLoop=1;jettySize=auto;html=1;endArrow=none;endFill=0;" edge="1" parent="1" source="Ao8Ksotd7pigEUmbOdXn-7" target="Ao8Ksotd7pigEUmbOdXn-9">
          <mxGeometry relative="1" as="geometry" />
        </mxCell>
        <mxCell id="Ao8Ksotd7pigEUmbOdXn-7" value="Skill 1" style="rounded=0;whiteSpace=wrap;html=1;fillColor=#dae8fc;strokeColor=#6c8ebf;fontSize=10;" vertex="1" parent="1">
          <mxGeometry x="100" y="392" width="70" height="22" as="geometry" />
        </mxCell>
        <mxCell id="Ao8Ksotd7pigEUmbOdXn-8" style="edgeStyle=orthogonalEdgeStyle;rounded=0;orthogonalLoop=1;jettySize=auto;html=1;endArrow=none;endFill=0;" edge="1" parent="1" source="Ao8Ksotd7pigEUmbOdXn-9" target="Ao8Ksotd7pigEUmbOdXn-10">
          <mxGeometry relative="1" as="geometry" />
        </mxCell>
        <mxCell id="Ao8Ksotd7pigEUmbOdXn-9" value="Skill 2" style="rounded=0;whiteSpace=wrap;html=1;fillColor=#dae8fc;strokeColor=#6c8ebf;fontSize=10;" vertex="1" parent="1">
          <mxGeometry x="100" y="430" width="70" height="22" as="geometry" />
        </mxCell>
        <mxCell id="Ao8Ksotd7pigEUmbOdXn-10" value="Skill 3" style="rounded=0;whiteSpace=wrap;html=1;fillColor=#dae8fc;strokeColor=#6c8ebf;fontSize=10;" vertex="1" parent="1">
          <mxGeometry x="100" y="470" width="70" height="22" as="geometry" />
        </mxCell>
        <mxCell id="Ao8Ksotd7pigEUmbOdXn-11" value="&amp;nbsp; Sequenz 3" style="rounded=0;whiteSpace=wrap;html=1;align=left;verticalAlign=top;fillColor=#ffe6cc;strokeColor=#d79b00;" vertex="1" parent="1">
          <mxGeometry x="410" y="360" width="140" height="140" as="geometry" />
        </mxCell>
        <mxCell id="Ao8Ksotd7pigEUmbOdXn-12" style="edgeStyle=orthogonalEdgeStyle;rounded=0;orthogonalLoop=1;jettySize=auto;html=1;endArrow=none;endFill=0;" edge="1" parent="1" source="Ao8Ksotd7pigEUmbOdXn-13" target="Ao8Ksotd7pigEUmbOdXn-15">
          <mxGeometry relative="1" as="geometry" />
        </mxCell>
        <mxCell id="Ao8Ksotd7pigEUmbOdXn-13" value="Skill 5" style="rounded=0;whiteSpace=wrap;html=1;fillColor=#dae8fc;strokeColor=#6c8ebf;fontSize=10;" vertex="1" parent="1">
          <mxGeometry x="420" y="392" width="70" height="22" as="geometry" />
        </mxCell>
        <mxCell id="Ao8Ksotd7pigEUmbOdXn-14" style="edgeStyle=orthogonalEdgeStyle;rounded=0;orthogonalLoop=1;jettySize=auto;html=1;endArrow=none;endFill=0;" edge="1" parent="1" source="Ao8Ksotd7pigEUmbOdXn-15" target="Ao8Ksotd7pigEUmbOdXn-16">
          <mxGeometry relative="1" as="geometry" />
        </mxCell>
        <mxCell id="Ao8Ksotd7pigEUmbOdXn-15" value="Skill 2" style="rounded=0;whiteSpace=wrap;html=1;fillColor=#dae8fc;strokeColor=#6c8ebf;fontSize=10;" vertex="1" parent="1">
          <mxGeometry x="420" y="430" width="70" height="22" as="geometry" />
        </mxCell>
        <mxCell id="Ao8Ksotd7pigEUmbOdXn-16" value="Skill 3" style="rounded=0;whiteSpace=wrap;html=1;fillColor=#dae8fc;strokeColor=#6c8ebf;fontSize=10;" vertex="1" parent="1">
          <mxGeometry x="420" y="470" width="70" height="22" as="geometry" />
        </mxCell>
        <mxCell id="Ao8Ksotd7pigEUmbOdXn-17" value="&amp;nbsp; Sequenz 2" style="rounded=0;whiteSpace=wrap;html=1;align=left;verticalAlign=top;fillColor=#ffe6cc;strokeColor=#d79b00;" vertex="1" parent="1">
          <mxGeometry x="250" y="360" width="140" height="140" as="geometry" />
        </mxCell>
        <mxCell id="Ao8Ksotd7pigEUmbOdXn-18" style="edgeStyle=orthogonalEdgeStyle;rounded=0;orthogonalLoop=1;jettySize=auto;html=1;endArrow=none;endFill=0;" edge="1" parent="1" source="Ao8Ksotd7pigEUmbOdXn-19" target="Ao8Ksotd7pigEUmbOdXn-21">
          <mxGeometry relative="1" as="geometry" />
        </mxCell>
        <mxCell id="Ao8Ksotd7pigEUmbOdXn-19" value="Skill 2" style="rounded=0;whiteSpace=wrap;html=1;fillColor=#dae8fc;strokeColor=#6c8ebf;fontSize=10;" vertex="1" parent="1">
          <mxGeometry x="260" y="392" width="70" height="22" as="geometry" />
        </mxCell>
        <mxCell id="Ao8Ksotd7pigEUmbOdXn-20" style="edgeStyle=orthogonalEdgeStyle;rounded=0;orthogonalLoop=1;jettySize=auto;html=1;endArrow=none;endFill=0;" edge="1" parent="1" source="Ao8Ksotd7pigEUmbOdXn-21" target="Ao8Ksotd7pigEUmbOdXn-22">
          <mxGeometry relative="1" as="geometry" />
        </mxCell>
        <mxCell id="Ao8Ksotd7pigEUmbOdXn-21" value="Skill 4" style="rounded=0;whiteSpace=wrap;html=1;fillColor=#dae8fc;strokeColor=#6c8ebf;fontSize=10;" vertex="1" parent="1">
          <mxGeometry x="260" y="430" width="70" height="22" as="geometry" />
        </mxCell>
        <mxCell id="Ao8Ksotd7pigEUmbOdXn-22" value="Skill 1" style="rounded=0;whiteSpace=wrap;html=1;fillColor=#dae8fc;strokeColor=#6c8ebf;fontSize=10;" vertex="1" parent="1">
          <mxGeometry x="260" y="470" width="70" height="22" as="geometry" />
        </mxCell>
        <mxCell id="Ao8Ksotd7pigEUmbOdXn-23" style="edgeStyle=orthogonalEdgeStyle;rounded=0;orthogonalLoop=1;jettySize=auto;html=1;endArrow=none;endFill=0;" edge="1" parent="1" source="Ao8Ksotd7pigEUmbOdXn-25" target="Ao8Ksotd7pigEUmbOdXn-27">
          <mxGeometry relative="1" as="geometry" />
        </mxCell>
        <mxCell id="Ao8Ksotd7pigEUmbOdXn-24" style="edgeStyle=orthogonalEdgeStyle;rounded=0;orthogonalLoop=1;jettySize=auto;html=1;entryX=0.75;entryY=0;entryDx=0;entryDy=0;strokeColor=#A8A8A8;dashed=1;" edge="1" parent="1" source="Ao8Ksotd7pigEUmbOdXn-25" target="Ao8Ksotd7pigEUmbOdXn-4">
          <mxGeometry relative="1" as="geometry">
            <Array as="points">
              <mxPoint x="195" y="241" />
            </Array>
          </mxGeometry>
        </mxCell>
        <mxCell id="Ao8Ksotd7pigEUmbOdXn-25" value="Seq1" style="rounded=0;whiteSpace=wrap;html=1;fillColor=#dae8fc;strokeColor=#6c8ebf;fontSize=10;" vertex="1" parent="1">
          <mxGeometry x="100" y="230" width="70" height="22" as="geometry" />
        </mxCell>
        <mxCell id="Ao8Ksotd7pigEUmbOdXn-26" style="edgeStyle=orthogonalEdgeStyle;rounded=0;orthogonalLoop=1;jettySize=auto;html=1;endArrow=none;endFill=0;" edge="1" parent="1" source="Ao8Ksotd7pigEUmbOdXn-27" target="Ao8Ksotd7pigEUmbOdXn-28">
          <mxGeometry relative="1" as="geometry" />
        </mxCell>
        <mxCell id="Ao8Ksotd7pigEUmbOdXn-27" value="Seq2" style="rounded=0;whiteSpace=wrap;html=1;fillColor=#dae8fc;strokeColor=#6c8ebf;fontSize=10;" vertex="1" parent="1">
          <mxGeometry x="100" y="268" width="70" height="22" as="geometry" />
        </mxCell>
        <mxCell id="Ao8Ksotd7pigEUmbOdXn-28" value="Seq3" style="rounded=0;whiteSpace=wrap;html=1;fillColor=#dae8fc;strokeColor=#6c8ebf;fontSize=10;" vertex="1" parent="1">
          <mxGeometry x="100" y="308" width="70" height="22" as="geometry" />
        </mxCell>
        <mxCell id="Ao8Ksotd7pigEUmbOdXn-29" value="" style="rounded=0;whiteSpace=wrap;html=1;align=left;verticalAlign=top;fillColor=#ffe6cc;strokeColor=#d79b00;" vertex="1" parent="1">
          <mxGeometry x="90" y="530" width="460" height="90" as="geometry" />
        </mxCell>
        <mxCell id="Ao8Ksotd7pigEUmbOdXn-30" value="Skill 3" style="rounded=0;whiteSpace=wrap;html=1;fillColor=#dae8fc;strokeColor=#6c8ebf;fontSize=10;" vertex="1" parent="1">
          <mxGeometry x="280" y="540" width="80" height="70" as="geometry" />
        </mxCell>
        <mxCell id="Ao8Ksotd7pigEUmbOdXn-31" value="Skill 4" style="rounded=0;whiteSpace=wrap;html=1;fillColor=#dae8fc;strokeColor=#6c8ebf;fontSize=10;" vertex="1" parent="1">
          <mxGeometry x="370" y="540" width="80" height="70" as="geometry" />
        </mxCell>
        <mxCell id="Ao8Ksotd7pigEUmbOdXn-32" value="Skill 5" style="rounded=0;whiteSpace=wrap;html=1;fillColor=#dae8fc;strokeColor=#6c8ebf;fontSize=10;" vertex="1" parent="1">
          <mxGeometry x="460" y="540" width="80" height="70" as="geometry" />
        </mxCell>
        <mxCell id="Ao8Ksotd7pigEUmbOdXn-33" value="Skill 1" style="rounded=0;whiteSpace=wrap;html=1;fillColor=#dae8fc;strokeColor=#6c8ebf;fontSize=10;" vertex="1" parent="1">
          <mxGeometry x="100" y="540" width="80" height="70" as="geometry" />
        </mxCell>
        <mxCell id="Ao8Ksotd7pigEUmbOdXn-34" value="Skill 2" style="rounded=0;whiteSpace=wrap;html=1;fillColor=#dae8fc;strokeColor=#6c8ebf;fontSize=10;" vertex="1" parent="1">
          <mxGeometry x="190" y="540" width="80" height="70" as="geometry" />
        </mxCell>
        <mxCell id="Ao8Ksotd7pigEUmbOdXn-35" style="edgeStyle=orthogonalEdgeStyle;rounded=0;orthogonalLoop=1;jettySize=auto;html=1;entryX=0.25;entryY=0;entryDx=0;entryDy=0;strokeColor=#A8A8A8;dashed=1;" edge="1" parent="1" source="Ao8Ksotd7pigEUmbOdXn-9" target="Ao8Ksotd7pigEUmbOdXn-34">
          <mxGeometry relative="1" as="geometry" />
        </mxCell>
        <mxCell id="Ao8Ksotd7pigEUmbOdXn-36" value="Startbefehl / Parameter" style="text;html=1;align=center;verticalAlign=middle;whiteSpace=wrap;rounded=0;fontSize=10;" vertex="1" parent="1">
          <mxGeometry x="310" y="128" width="140" height="30" as="geometry" />
        </mxCell>
      </root>
    </mxGraphModel>
  </diagram>
</mxfile>
